<svg height="512pt" viewBox="0 -37 512 512" width="512pt" xmlns="http://www.w3.org/2000/svg"><path d="m481.421875 98.222656c-39.542969-93.964844-107.214844-82.59375-108.417969-82.492187-1.203125-.101563-68.875-11.472657-108.417968 82.492187-19.253907 45.75-24.046876 91.613282-25.1875 111.375-.449219 7.765625 4.410156 14.851563 11.828124 17.199219l121.777344 38.566406 121.777344-38.566406c7.417969-2.347656 12.277344-9.433594 11.828125-17.199219-1.140625-19.761718-5.933594-65.625-25.1875-111.375zm0 0" fill="#e8f3f9"/><path d="m412.386719 39.316406c0 21.714844-17.601563 39.320313-39.316407 39.320313-21.714843 0-39.320312-17.605469-39.320312-39.320313s17.605469-39.316406 39.320312-39.316406c21.714844 0 39.316407 17.601562 39.316407 39.316406zm0 0" fill="#b2b9bf"/><path d="m279.855469 127.382812v174.246094h186.300781v-174.246094c0-46.730468-40.132812-83.371093-86.667969-79.128906-4.3125.390625-8.652343.390625-12.964843 0-46.539063-4.242187-86.667969 32.398438-86.667969 79.128906zm0 0" fill="#fdbd37"/><path d="m379.488281 48.253906c-.679687.0625-1.355469.097656-2.035156.136719 21.652344 7.230469 37.53125 27.652344 37.53125 52.078125v201.160156h51.167969v-174.246094c0-46.730468-40.128906-83.371093-86.664063-79.128906zm0 0" fill="#fa9a39"/><path d="m486.691406 296.738281c-21.726562-11.027343-44.652344-18.699219-68.054687-23.019531-9.101563-1.683594-15.726563-9.582031-15.726563-18.839844v-36.589844h-59.808594v36.589844c0 9.257813-6.625 17.15625-15.730468 18.839844-23.398438 4.320312-46.328125 11.992188-68.050782 23.019531-13.921874 9.28125-25.3125 30.5625-25.3125 47.292969v94.609375h265.421876c6.941406 0 12.570312-5.628906 12.570312-12.570313v-82.039062c0-16.730469-11.390625-38.011719-25.308594-47.292969zm0 0" fill="#fed6a6"/><path d="m486.691406 296.738281c-21.726562-11.027343-44.652344-18.699219-68.054687-23.019531-9.101563-1.683594-15.726563-9.582031-15.726563-18.839844v-36.589844h-50.308594v57.597657c0 9.257812 6.625 17.15625 15.730469 18.839843 23.398438 4.320313 46.328125 11.992188 68.050781 23.019532 13.921876 9.28125 25.3125 30.5625 25.3125 47.292968v73.601563h37.734376c6.941406 0 12.570312-5.628906 12.570312-12.570313v-82.039062c0-16.730469-11.390625-38.011719-25.308594-47.292969zm0 0" fill="#efc79c"/><path d="m307.425781 133.804688h-10.875c-9.226562 0-16.695312 7.480468-16.695312 16.707031v7.902343c0 9.226563 7.46875 16.707032 16.695312 16.707032h10.875zm0 0" fill="#fed6a6"/><path d="m438.582031 133.804688h10.875c9.226563 0 16.695313 7.480468 16.695313 16.707031v7.902343c0 9.226563-7.46875 16.707032-16.695313 16.707032h-10.875zm0 0" fill="#fed6a6"/><path d="m373.003906 102.894531c-19.753906 19.753907-43.898437 23.234375-58.179687 23.289063-6.78125.027344-12.253907 5.539062-12.226563 12.324218l.175782 45.878907c0 46.6875 49.011718 68.671875 70.230468 69.128906 21.21875-.457031 70.230469-22.441406 70.230469-69.128906l.175781-45.878907c.027344-6.785156-5.441406-12.296874-12.222656-12.324218-14.285156-.054688-38.429688-3.535156-58.183594-23.289063zm0 0" fill="#ffe3c2"/><path d="m431.183594 126.183594c-9.867188-.039063-24.441406-1.714844-39.023438-9.257813.085938 2.59375.128906 5.378907.128906 8.371094l-.226562 59.089844c0 32.152343-23.242188 52.585937-44.644531 62.34375 9.679687 4.410156 18.980469 6.640625 25.585937 6.78125 21.21875-.453125 70.230469-22.4375 70.230469-69.125l.175781-45.882813c.027344-6.78125-5.445312-12.292968-12.226562-12.320312zm0 0" fill="#f7d6b5"/><path d="m379.253906 191.933594h-5.175781c-5.621094 0-10.195313-4.574219-10.195313-10.195313v-15.703125c0-4.269531 3.457032-7.726562 7.726563-7.726562 4.265625 0 7.726563 3.457031 7.726563 7.726562v10.445313c4.226562.046875 7.640624 3.488281 7.640624 7.726562.003907 4.269531-3.457031 7.726563-7.722656 7.726563zm0 0" fill="#d08f61"/><path d="m373.007812 226.015625c-12.65625 0-24.15625-5.75-30.011718-15.003906-2.28125-3.609375-1.210938-8.378907 2.398437-10.660157 3.605469-2.285156 8.378907-1.207031 10.660157 2.394532 3.003906 4.746094 9.65625 7.816406 16.953124 7.816406 7.296876 0 13.953126-3.070312 16.957032-7.816406 2.28125-3.605469 7.054687-4.679688 10.660156-2.394532 3.605469 2.28125 4.679688 7.054688 2.398438 10.660157-5.859376 9.253906-17.359376 15.003906-30.015626 15.003906zm0 0" fill="#c35f58"/><path d="m408.957031 166.308594c-4.269531 0-7.726562-3.457032-7.726562-7.726563v-7.15625c0-4.265625 3.457031-7.726562 7.726562-7.726562 4.265625 0 7.726563 3.460937 7.726563 7.726562v7.15625c0 4.269531-3.460938 7.726563-7.726563 7.726563zm0 0" fill="#844535"/><path d="m337.054688 166.308594c-4.269532 0-7.726563-3.457032-7.726563-7.726563v-7.15625c0-4.265625 3.457031-7.726562 7.726563-7.726562 4.265624 0 7.722656 3.460937 7.722656 7.726562v7.15625c0 4.269531-3.457032 7.726563-7.722656 7.726563zm0 0" fill="#844535"/><path d="m465.75 438.640625v-85.585937c0-2.367188-.75-4.679688-2.160156-6.582032-8.609375-11.609375-22.410156-19.140625-37.976563-19.140625-14.613281 0-27.667969 6.632813-36.332031 17.046875-5.511719 6.625-15.566406 6.625-21.074219 0-8.667969-10.414062-21.722656-17.046875-36.335937-17.046875-15.566406 0-29.367188 7.53125-37.976563 19.140625-1.410156 1.902344-2.15625 4.214844-2.15625 6.582032v85.585937zm0 0" fill="#e8f3f9"/><path d="m463.589844 346.472656c-8.609375-11.613281-22.410156-19.140625-37.976563-19.140625-3.800781 0-7.492187.457031-11.035156 1.304688v110.003906h51.171875v-85.585937c0-2.367188-.75-4.679688-2.160156-6.582032zm0 0" fill="#e4ebf0"/><path d="m265.328125 289.636719c-75.027344-38.085938-163.722656-38.085938-238.75 0-16.304687 8.277343-26.578125 25.011719-26.578125 43.296875v93.136718c0 6.941407 5.628906 12.566407 12.570312 12.566407h279.332032v-105.703125c0-18.285156-10.269532-35.019532-26.574219-43.296875zm0 0" fill="#545464"/><path d="m265.328125 289.636719c-43.609375-22.136719-91.835937-31.382813-139.3125-27.785157v12.085938c0 8.347656 5.960937 15.546875 14.183594 16.988281 25.378906 4.453125 50.257812 12.644531 73.789062 24.589844 16.304688 8.277344 26.578125 25.011719 26.578125 43.296875v79.824219h51.335938v-105.703125c0-18.285156-10.269532-35.019532-26.574219-43.296875zm0 0" fill="#394856"/><path d="m85.996094 267.988281 59.972656 131.777344 59.96875-131.769531c-39.4375-9.210938-80.5-9.214844-119.941406-.007813zm0 0" fill="#e8f3f9"/><path d="m114.550781 207.257812h62.800781v80.511719h-62.800781zm0 0" fill="#efc79c"/><path d="m218.464844 56.488281h-145.023438c-11.8125 0-21.390625 9.574219-21.390625 21.386719v59.175781h187.804688v-59.175781c0-11.8125-9.578125-21.386719-21.390625-21.386719zm0 0" fill="#fa9a39"/><path d="m77.089844 118.546875h-11.417969c-9.6875 0-17.53125 7.855469-17.53125 17.542969v8.300781c0 9.6875 7.84375 17.542969 17.53125 17.542969h11.417969zm0 0" fill="#fed6a6"/><path d="m214.8125 118.546875h11.417969c9.6875 0 17.535156 7.855469 17.535156 17.542969v8.300781c0 9.6875-7.847656 17.542969-17.535156 17.542969h-11.417969zm0 0" fill="#fed6a6"/><path d="m71.917969 89.804688.253906 81.855468c.488281 20.855469 12.316406 35.246094 24.867187 47.605469 11.550782 11.371094 27.261719 24.804687 49.308594 24.992187 22.039063-.339843 37.664063-13.859374 49.132813-25.3125 12.464843-12.445312 24.195312-26.933593 24.542969-47.792968l-.15625-49.628906c-.054688-17.535157-14.28125-31.71875-31.816407-31.71875zm0 0" fill="#ffe3c2"/><path d="m219.867188 121.523438c-.054688-17.535157-14.28125-31.71875-31.816407-31.71875h-19.449219l.25 81.347656c-.34375 20.855468-12.074218 35.347656-24.539062 47.792968-6.460938 6.445313-14.234375 13.550782-23.730469 18.589844 7.472657 3.953125 15.996094 6.640625 25.765625 6.722656 22.039063-.339843 37.664063-13.863281 49.132813-25.3125 12.464843-12.445312 24.195312-26.9375 24.542969-47.792968zm0 0" fill="#f7d6b5"/><path d="m103.40625 26.421875c-16.933594 0-30.734375 13.375-31.425781 30.136719-10.992188.898437-19.929688 10.097656-19.929688 21.316406v47.179688c3.214844-3.96875 8.117188-6.507813 13.625-6.507813h6.332031s.023438 0-.003906 0c11.605469 0 21.511719-9.308594 23.792969-20.6875 0-4.398437 3.570313-7.96875 7.96875-7.96875h85.984375c26.054688 0 47.171875-21.117187 47.171875-47.171875v-14.121094c0-1.203125-.972656-2.175781-2.175781-2.175781zm0 0" fill="#fdbd37"/><path d="m53.804688 438.640625v-55.613281c0-4.265625-3.457032-7.722656-7.726563-7.722656-4.265625 0-7.726563 3.457031-7.726563 7.722656v55.613281zm0 0" fill="#4b4b5b"/><path d="m253.550781 438.640625v-55.613281c0-4.265625-3.457031-7.722656-7.726562-7.722656-4.265625 0-7.722657 3.457031-7.722657 7.722656v55.613281zm0 0" fill="#4b4b5b"/><path d="m152.515625 179.199219h-5.433594c-5.691406 0-10.320312-4.628907-10.320312-10.320313v-16.488281c0-4.265625 3.457031-7.726563 7.726562-7.726563 4.265625 0 7.726563 3.460938 7.726563 7.726563v11.355469h.300781c4.265625 0 7.726563 3.460937 7.726563 7.726562 0 4.269532-3.460938 7.726563-7.726563 7.726563zm0 0" fill="#d08f61"/><path d="m145.957031 214.984375c-13.160156 0-25.109375-5.96875-31.191406-15.574219-2.28125-3.605468-1.207031-8.378906 2.398437-10.660156 3.609376-2.28125 8.378907-1.207031 10.660157 2.398438 3.222656 5.09375 10.339843 8.382812 18.132812 8.382812 7.789063 0 14.90625-3.289062 18.128907-8.382812 2.28125-3.605469 7.054687-4.679688 10.660156-2.398438 3.605468 2.28125 4.679687 7.054688 2.398437 10.660156-6.082031 9.605469-18.03125 15.574219-31.1875 15.574219zm0 0" fill="#c35f58"/><path d="m183.703125 152.292969c-4.265625 0-7.726563-3.460938-7.726563-7.726563v-7.511718c0-4.269532 3.460938-7.726563 7.726563-7.726563s7.726563 3.457031 7.726563 7.726563v7.511718c0 4.265625-3.460938 7.726563-7.726563 7.726563zm0 0" fill="#844535"/><path d="m108.203125 152.292969c-4.269531 0-7.726563-3.460938-7.726563-7.726563v-7.511718c0-4.269532 3.457032-7.726563 7.726563-7.726563 4.265625 0 7.722656 3.457031 7.722656 7.726563v7.511718c0 4.265625-3.457031 7.726563-7.722656 7.726563zm0 0" fill="#844535"/><path d="m145.96875 399.765625-60.492188-132.914063-21.152343 7.167969-8.472657 30.265625c-.449218 1.613282.203126 3.335938 1.609376 4.242188l27.320312 17.644531c1.144531.738281 1.8125 2.035156 1.742188 3.398437l-1.027344 20.640626c-.0625 1.238281.480468 2.429687 1.453125 3.199218zm0 0" fill="#4b4b5b"/><path d="m145.96875 399.765625 60.492188-132.917969 21.15625 7.171875 8.46875 30.265625c.449218 1.613282-.199219 3.332032-1.609376 4.242188l-27.316406 17.640625c-1.148437.742187-1.8125 2.039062-1.746094 3.402343l1.03125 20.640626c.058594 1.238281-.484374 2.429687-1.457031 3.195312zm0 0" fill="#4b4b5b"/><path d="m178.492188 258.796875-32.539063 28.296875 33.585937 20.40625c2.585938 1.570312 5.949219.882812 7.710938-1.578125l3.566406-4.699219 15.683594-34.460937c-9.847656-4.035157-25.640625-10.023438-28.007812-7.964844zm0 0" fill="#545464"/><path d="m100.871094 300.675781 3.800781 5.246094c1.761719 2.460937 5.125 3.148437 7.710937 1.578125l33.585938-20.40625-32.539062-28.296875c-2.429688-2.109375-18.484376 4.109375-27.953126 8.054687zm0 0" fill="#545464"/><path d="m145.960938 287.097656-17.042969 10.355469 6.015625 15.609375h22.074218l6.011719-15.601562zm0 0" fill="#e35052"/><path d="m157.007812 313.0625h-22.074218l-7.148438 46.746094 18.183594 39.957031 18.1875-39.957031zm0 0" fill="#fc6a58"/></svg>