<?xml version="1.0" encoding="iso-8859-1"?>
<!-- Generator: Adobe Illustrator 21.0.0, SVG Export Plug-In . SVG Version: 6.00 Build 0)  -->
<svg xmlns="http://www.w3.org/2000/svg" xmlns:xlink="http://www.w3.org/1999/xlink" version="1.1" id="Capa_1" x="0px" y="0px" viewBox="0 0 512 512" style="enable-background:new 0 0 512 512;" xml:space="preserve" width="512" height="512">
<g>
	<g>
		<g>
			<path style="fill:#8CD95B;" d="M367.019,302.425c-30.804-45.595-82.003-72.815-136.96-72.815h-64.88     C74.099,229.61,0,303.709,0,394.788v15h312.13L367.019,302.425z"/>
			<path style="fill:#61C27C;" d="M230.059,229.61h-34.67v180.178H312.13l54.889-107.363     C336.215,256.83,285.016,229.61,230.059,229.61z"/>
			<path style="fill:#FFDFCF;" d="M195.389,34.514c-62.059,0-112.548,50.489-112.548,112.548     c0,62.059,50.489,112.548,112.548,112.548c62.06,0,112.548-50.489,112.548-112.548C307.937,85.003,257.448,34.514,195.389,34.514     z"/>
			<path style="fill:#FFCEBF;" d="M195.389,34.514V259.61c62.06,0,112.548-50.489,112.548-112.548     C307.937,85.003,257.448,34.514,195.389,34.514z"/>
		</g>
	</g>
	<g>
		<path style="fill:#FFDA2D;" d="M403.552,260.591c-59.798,0-108.447,48.649-108.447,108.448    c0,59.798,48.649,108.447,108.447,108.447c59.799,0,108.448-48.649,108.448-108.447C512,309.24,463.351,260.591,403.552,260.591z"/>
		<path style="fill:#FDBF00;" d="M403.552,260.591v216.895c59.799,0,108.448-48.649,108.448-108.447    C512,309.24,463.351,260.591,403.552,260.591z"/>
		<g>
			<g>
				<path style="fill:#FC1D5A;" d="M422.292,326.616v86.613h-29.201V348.64h-14.848v-22.024H422.292z"/>
			</g>
		</g>
		<g>
			<rect x="403.552" y="326.616" style="fill:#DD0057;" width="18.74" height="86.613"/>
		</g>
	</g>
</g>















</svg>
