<svg height="464pt" viewBox="0 0 464 464" width="464pt" xmlns="http://www.w3.org/2000/svg"><path d="m247.753906 298.382812-31.410156 6.121094-52.054688-266.972656c-3.378906-17.34375 7.941407-34.148438 25.285157-37.53125zm0 0" fill="#cdcdcd"/><path d="m272 280-272-.6875v-239.3125h272zm0 0" fill="#6b9777"/><path d="m32 71.3125h232v176h-232zm0 0" fill="#99d8aa"/><path d="m0 40h88c0 48.601562-39.398438 88-88 88zm0 0" fill="#6b9777"/><path d="m88 279.3125c0-48.601562-39.398438-88-88-88v88l66.488281.167969zm0 0" fill="#6b9777"/><path d="m288 161.199219c0 30.929687-25.070312 56-56 56s-56-25.070313-56-56c0-30.925781 25.070312-56 56-56s56 25.074219 56 56zm0 0" fill="#6b9777"/><path d="m264 40h200v240h-200zm0 0" fill="#f7ba61"/><g fill="#ea9d2d"><path d="m360 145.191406c-13.253906 0-24-10.742187-24-24 0-13.253906 10.746094-24 24-24s24 10.746094 24 24c0 13.257813-10.746094 24-24 24zm0-32c-4.417969 0-8 3.582032-8 8 0 4.417969 3.582031 8 8 8s8-3.582031 8-8c0-4.417968-3.582031-8-8-8zm0 0"/><path d="m416 225.191406c-13.253906 0-24-10.742187-24-24 0-13.253906 10.746094-24 24-24s24 10.746094 24 24c0 13.257813-10.746094 24-24 24zm0-32c-4.417969 0-8 3.582032-8 8 0 4.417969 3.582031 8 8 8s8-3.582031 8-8c0-4.417968-3.582031-8-8-8zm0 0"/><path d="m352 225.191406c-2.921875-.003906-5.609375-1.601562-7.011719-4.167968-1.398437-2.566407-1.285156-5.691407.292969-8.152344l72-112c1.507812-2.480469 4.246094-3.945313 7.148438-3.832032 2.902343.117188 5.511718 1.796876 6.824218 4.386719 1.308594 2.59375 1.109375 5.691407-.519531 8.09375l-72 112c-1.472656 2.292969-4.011719 3.675781-6.734375 3.671875zm0 0"/><path d="m304 240h16v16h-16zm0 0"/><path d="m304 208h16v16h-16zm0 0"/><path d="m304 176h16v16h-16zm0 0"/><path d="m304 144h16v16h-16zm0 0"/><path d="m304 112h16v16h-16zm0 0"/><path d="m304 80h16v16h-16zm0 0"/><path d="m304 40h16v24h-16zm0 0"/></g><path d="m281.925781.00390625c17.347657 3.38281275 28.667969 20.18749975 25.285157 37.53124975l-52.054688 266.972656-31.40625-6.121093zm0 0" fill="#ebebeb"/><path d="m224 304.5625 34.222656 123.34375c5.558594 20.25 23.59375 34.5625 44.578125 35.375 20.980469.808594 40.070313-12.070312 47.171875-31.832031 7.101563-19.757813.582032-41.84375-16.117187-54.574219-16.695313-12.734375-39.71875-13.179688-56.894531-1.097656l-22.128907-79.777344zm65.054688 114.773438c-2.363282-8.515626 2.621093-17.332032 11.136718-19.695313 8.515625-2.367187 17.335938 2.621094 19.699219 11.136719 2.363281 8.511718-2.625 17.332031-11.136719 19.695312-8.515625 2.363282-17.332031-2.621094-19.699218-11.136718zm0 0" fill="#4799cf"/><path d="m209.167969 296.71875-22.128907 79.777344c-17.132812-11.992188-40.058593-11.511719-56.671874 1.1875-16.617188 12.699218-23.097657 34.695312-16.023438 54.375 7.074219 19.679687 26.078125 32.511718 46.972656 31.726562 20.898438-.785156 38.882813-15.011718 44.460938-35.167968l34.222656-123.335938zm-53.921875 134.480469c-8.511719-2.363281-13.5-11.179688-11.136719-19.695313s11.183594-13.5 19.699219-11.136718c8.515625 2.363281 13.5 11.183593 11.136718 19.699218-2.367187 8.511719-11.183593 13.496094-19.699218 11.132813zm0 0" fill="#6cbae5"/><path d="m254.785156 297.199219c0 13.257812-10.746094 24-24 24-13.257812 0-24-10.742188-24-24 0-13.253907 10.742188-24 24-24 13.253906 0 24 10.746093 24 24zm0 0" fill="#e4e4e2"/></svg>